<mxfile host="65bd71144e">
    <diagram id="NiTU9RM1B9K-riAegZ1v" name="第 1 页">
        <mxGraphModel dx="2023" dy="720" grid="1" gridSize="10" guides="1" tooltips="1" connect="1" arrows="1" fold="1" page="1" pageScale="1" pageWidth="827" pageHeight="1169" math="0" shadow="0">
            <root>
                <mxCell id="0"/>
                <mxCell id="1" parent="0"/>
                <mxCell id="9" value="" style="rounded=0;whiteSpace=wrap;html=1;fillColor=#ffcc99;strokeColor=#36393d;fontColor=#000000;" parent="1" vertex="1">
                    <mxGeometry x="-160" y="700" width="160" height="50" as="geometry"/>
                </mxCell>
                <mxCell id="3" value="" style="shape=image;verticalLabelPosition=bottom;labelBackgroundColor=default;verticalAlign=top;aspect=fixed;imageAspect=0;image=data:image/png,iVBORw0KGgoAAAANSUhEUgAAA1kAAACYCAYAAAAWXSO/AAAAAXNSR0IArs4c6QAAAARnQU1BAACxjwv8YQUAAAAJcEhZcwAADsMAAA7DAcdvqGQAAB4JSURBVHhe7d3fq1XH3cdx/wXvHvDOi+KFaFOktLEkKQdKamyMSNU+UHjaBKVWq72wUoJNI4IRqRfGggbzJNSqyOEkRYJiD/QUeyH4XOVKCoEWQq+D+QfmWWtm1tozs74za/bes9fZ2/O+eJGz18yavX7s034/zux1Nm3bvkuFdr/yqtr+ze90tgMAAAAA0sSQBQAAAACYDCELAAAAAAoiZAEAAABAQYQsAAAAACjo+QtZxz9Wy/fuqbNvCG0Re969V+2zppavnhHb18Pyg01KPa1tUctCOwAAAID5RMiqzFvIunhzM+EKAAAAWFCErLmzUz1+skk9u7lTaAMAAAAw7whZc4eQBQAAACwyOWTtv6723n+klk6EbefUUrX94LVz3W0Of78javfdR2rv+SNq24k7Tr+Havd+t18mHaLWRm5dVns67R+ro9vPqMtOv4/ePeyM47fJfdYLIQsAAABYZJGZLBOMDt69rna423VIcsNR3e+O2uX02XH+odCnCVajvruuCeP3MN+dcmepDquzt+qAVIcqu60NYU6/3tktE7oIWQAAAACmFV8u2AlUmcGoMwsmBzYTxvyAlhYJQm9cVh9V2y8ft6/FQGXCWDxETRqyXlJ/+flp9e/jskevSPv0OLZVPXu6WT0+JrQBAAAAmHuJ72SZZYB6mZ/zurOE0FsCONIJWd4SwwnoMCXNRgUBKjJrdfTqWuLpgXMwk6XD1SalnmxVF6V2AAAAAAsh+eALPdvUzEDpMBXMPNmANQpildhM1rqGLLuscJ5DVsOGrS8uCW0AAAAA5l4yZJnAZJYM1ksFvTBVEZf8zSpkTbVcsC9EzdFyQb6TBQAAACy0dMiyAWnv+etqSXoaYPi9LRuwZrJcsKKX/HkBys5QuU8YFEKW2c95OEbHHM1kEbIAAACAhdYTsirNd64iIUk/DMMGKxO4wu9ulQtZNfOEwTo0WeESQDuz5fUJH/PeQcgCAAAAUEZ/yNoQTMhqlxyuK0IWAAAAsMg2ZMiqZ8PcQGVmx1LLCYe1/GCTUk+3qGWhDQAAAMB826AzWfa7XO2SwvkJWIaZzVL1I90JWwAAAMBCYbkgAAAAABREyAIAAACAgghZAAAAAFCQGLJe3fOG2vGtFzvbAQAAAABphCwAAAAAKIiQBQAAAAAFEbIAAAAAoCBC1tReU4///rb6z9/fUjeq1zf+XP/8tnr8O6lvws8Pqn9Osp/EjvWfzw6qs9tfVp99Vh/TKfXZz4W+AAAAAIoiZE3NhhgdaHaps++fWv+Q1QS/P7+mX5vgR8gCAAAAhkDImpoUsiYINDMPWWamrdsXAAAAQEmErKn5IWvb796au5Blgh8hCwAAABjC7EPWgUtqZfUTdeHAIXVhZVWtrlo3Tnf6vn7hk1F7beWSer1pP/Vhte1DdVL/t26vft5+Wn2gf67Hd8cK3qvT3jiszt5aU8v37qmzb0jtBejwFAtdJgzpYNX2a75DZfzz/Zfb/tFZsqIBDQAAAMA0BgpZJux8cMpus0GpfW23rVw4NHrdBKgmjDXhSgevuu0TtbLihLc2tJn9vLH0vlLQGipkRQKQG8BsP+/7XHpWzN3XhDI3eNV0+Gpm0gAAAACsq8FClheopCAkOHmjCVXVay+YuQHMD1l6NsydAdNMn773mw1ntqp6rb8fZZfxmRBll/GJYawbqrrfr5KDFwAAAID1MUchK1ziZ3khq5mNcvf3Q5YOZuEYjXa2a0hm+Z8JQSYQtSGpDlnNDFRmyOr0c4MaAAAAgHU3JyGrCVj196xG/bozWZkhqzOTtb7a2as6IFX/rV/XIclb5pcbspoHbThPDmQWCwAAAJgfcxKypJmtyULW6/rhGX5YW286TFWhqP6vDlH17JMNW+3SweyQVWlnr+p2ZrEAAACAeTJfM1nOcr522d+YIatpy5vNGuDBFzW9LPBUFaKaQFSHo+p1u4yw2jZOyLLb9RMIm5A2oT3v3qvOv7oGV8+I7QAAAADGMz/fybL93O9P6VmpsUPWqL0dS2v2dQ0UsmyAcgOReYCFE6rGClmJx7mP6/jHJmTN+hoAAAAAG8TsQxZmotxj25ug+bE6KrYDAAAAGAchaxHp72QVmMWq2Zmsj949LLcDAAAAGAsha4E0SwzLBKwz6rJeJrimLh+X2gEAAABMgpAFAAAAAAURsgAAAACgIEIWAAAAABREyAIAAACAgsSQ9Z2X9gAAAAAAJkDIAgAAAICCCFkAAAAAUBAhCwAAAAAKioes33xTff10k1KVr+8udXYEAAAAAHT1z2TZsPWv951tAAAAAABR1nLBe3/dpNRfv9vZDgAAAADwEbIAAAAAoKBCIev36n9XV9Xq6p/UGbEdAAAAADYGQhYAAAAAFJQVsr7z/jeUevpf6v9+E2wHAAAAAHjyQpb2XfUv/Uj3b6h7YjsAAAAAICtkXbn7X4QrAAAAAMhQ6DtZAAAAAIBa4Qdf/EX94X+kdgAAAADYGAqFrKPqD5/WIWtVffqHo0I7AAAAAGwM5ZYL/vZPhCwAAAAAG15GyDJPFfz67lKw3dXMZPF3sgAAAABsbPGQ9Ztvqq/1I9vTs1hnPjbLBFc/fV/9t9AOAAAAABtJ1nJBAAAAAEAeQhYAAAAAFETIAgAAAICCCFkAAAAAUJAYsgAAAAAAkyFkAQAAAEBBhCwAAAAAKIiQBQAAAAAFTReyjn2ufvbpl2ppn9AW8cI7X1b7fKV+duW22I4N4NIW80euK19ccrYf26qe2e3Pbu709wEAAAAWBCFrMEfU7ruP1MFr54S2DcQGKS9chXL6AAAAAHNq8JC1cRGyahdvblbqyVZ1UWhzLT/YpNSDbWIbAAAAMM8IWYMhZNUIWQAAAHjepUOWDlFfjdxcUy902j9XL26/rfY5/Q6/854zjt8m9xnY/utq7/2Havd+G3zuW0EA2nH+oTp497rasf2cWmr6VPaeP+L123bizmiMmt7Htun3ctoCSyeccZogFm1ffOVC1mn1weqqWl39UJ0U2wEAAID1EQ1Z5rtT7izVe2rpZh2Q6lBlt7UhzOnXO7tlQtf6hywTYtrAZLe5AUqHrDDs6EBVBzS3z+j1KCjdUbvsON726EyWDXJuuw1vnVC3wAhZAAAAeN5FQlYkCO1bU4er7fuO2ddioDJhLB6i5idkheFl17Uq5DizUN0AVbH7mtBlglEnBHl9GumQZd4rDGbdYxrS26/9Uv37+GnZoR+K+6TtVI+fZD45UD+BcLN63HzWAAAAgAUhhywdpqTZqCBARWatXrzyVeLpgfMTssKleGHQiQWflh4nCGGaCVR++EqHLB2mpDY9m5U4hoVgwtX4oWmb+kI/0n2LWhbbAQAAgPkzg5BllxUuasjqzGQRssqxYSvjgRZ6WSHhCgAAAAtoBssF+0LU/IasMOj0hiyWC46NpwsCAADgeRd98IVe8ucFKDtD5T5hUAhZZj/n4Rgd6ZB19OqaWr5XuXpGbC9CCEEm5PizUv0hy4Yg6cEXQjAyfSPj2WPyQph98EUYBhdZ+QdffKIuHJDaAQAAgPURDVk184TBOjRZ4RJAO7Pl9Qkf896RClmH1dlbw4Ws5smBRjf85ISsmunnjBWZrWoDmNPXD1D+o+I7D914DpQLWYfUhZU6ZK2qlQuHhHYAAABgfSRD1myYkNUuOVwPkeWCmL2iywVPfUjIAgAAwNyZeciqZ8PcQGVmx1LLCQdAyFo/+tHsm9QXl4S2lnmqYPpR781MFn8nCwAAAPNlgJks+12udknhJAErXEYne/W2vN1TL+VbxJAlLnEMrak3xO2u9V+CaJ4cuKkbto5tVc/s9tQs1skbZpng6sol9brQDgAAAKyndVguCAAAAADPL0IWAAAAABREyAIAAACAgghZAAAAAFAQIQsAAAAACiJkAQAAAEBBhCwAAAAAKIiQBQAAAAAFTReyjn2ufvbpl2ppn9AW8cI7X5o/SnzlttgOoLSd6vET+0een2xVF5225Qd2+9MtatnZDgAAgMkRsgZzRO2++0gdvHZOaMMs7LpWXe+719UOoW0j0UEqCFehnD4AAADIM3jI2rgIWUMjZNW2qS+eblJfXJLaHMe2qmdPN6vHx4Q2AAAAjIWQNRhC1tAIWTVCFgAAwNDSIUuHqK9Gbq6pFzrtn6sXt99W+5x+h995zxnHb5P7DGz/dbX3/kO1e78NPvetIADtOP/QFunn1FLTp7L3/BGv37YTd0Zj1NzCXr+X0xZYOuGM0wSxaPuiMudVXzd9Tdvzu6N2uf30day3pe/LtuB+HNT3MtbmC++dfzyV5y4ElwtZr1/4RK2urqqVC4fEdgAAABjRkGW+O+XOUr2nlm7WAakOVXZbG8Kcfr2zWyZ0rX/ICopuu80twt0CvA07OgiMinrTxy3ym4AQBIjemSwbDtx2G946oW7hOKGpDaB2mxtInbAa3pf2+ifuUxhI+2aydLt3n+w9SOyzeAhZAAAAQ4uErEgQ2remDlfb9zWFmBioTBiLh6j5CVlheAmL8m6AqnhFvynKOyEoDAZaOmSZ9wqD2fOy5E0IVLUgsDYhy79u/jWWr4d8bZPXTrxHlfCYBvVD9ej4afVv0S/VX74t7dPj0pbMJwfaJxA+2Ca0AQAAYBxyyNJhSpqNCgJUZNbqxStfJZ4eOD8hKyyww6ATCz4tPY5UkJui3w9f6ZClA4HUpov+xDEshMi5h/ehN+BI19XQ9yoIVMmQFb2uJtR1wtei0eFq/NB08eZmvd+zmzvFdgAAAPSbQciyywoXNWQ5RTkhq5RUyApnsghZRemwlfNAC7OskHAFAAAwvRksF+wLUfMbssKg0xuyWC6YKXLuYdDpDVmx6yGPn7x2kc9AzjHMzgyWC/J0QQAAgMFFH3yhl/x5AcrOULlPGBRCltnPeThGRzpkHb26ppbvVa6eEduLEApsE3L84ro/ZNlC3tvPFvxCcW/6Rsazx+QFBV3wz3ZWZc+798z1vnVZ7RHayxBCkD1fL6DmBBx7Tdz9pHuX2m7YY/LuhwnNsSC8mMo/+GL1xmmxHQAAAEY0ZNXMEwbr0GSFSwDtzJbXJ3zMe0cqZB1WZ28NF7LqYn2kG35yQlbN9HPGihbpTWE/4gcoW+S3egJHAW2oHSJkeec2xSxS5/7F75EJtiPhrGNf++IrOJN16kMTslY/VCeldgAAAGjJkDUbJmS1Sw7XgzCThVkSZrIwkJLLBQ+pCyuELAAAgD4zD1n1bJgbqMzsWGo54QAIWQMjZK0f+2j2J1vVRbHdME8V7HnUu53J4u9kAQAApA0wk2W/y9UuKZwkYIXL6GSv3pa3e+pCfxFDlrjEMbSm3hC3u/KWIIbL6ETLf5O3u/R30xYxZBX+zInvMRQzm6Uf6R6EreUHdntqFuvAJbWilwmuqg9OCe0AAADwrMNyQQAAAAB4fhGyAAAAAKAgQhYAAAAAFETIAgAAAICCCFkAAAAAUBAhCwAAAEg4evKsuH0ck45R79dH2g++oa8TIQsAAACopArxaYv0Sffv22+acVMm2SckjVGT+vYZdwypf7htlghZAAAAgBUrxqcp0pt9Jxmjb59Ue90WE/ZzX8fk9qul+sbaxhm/4e4T7p9qm7XnMGTdVvvaP3w86R8/HsPv31TX/vHbkTt75H6zcmmLUk+3qGWpLeXY59W1+VIt7RPaIl68Yq7p4XfeE9sBoIyd6vGTTeqLS1LbEF5TB6r/Mz7wfalt5Hs/qQqVn7wmtvXR+1bv0eh7r65X1A/eGvf9zXkdPflr9YNvS+0b17d+9Gvvfvz0R690+33/iNdn0nuP8qb/ffLVYzT/7RPuKwn75e7XcN8vRtovFOuXu3+tVF+pbZyxXe5+4Riptll7rmeyXnjny9mHrNbL6hcPBg5Zx7aqZ08nLEQIWfn2X1d77z9SSyeENszErmuP1MG719UOoQ0zcOKOOnj/odq9X2hbL/ofkNYnaOmC+61D6ltCW+vbh9RPpwgrOQEtXTjOccjSYWRRg5y5RmLIak1y7ddbwWOe6/ub9w8k0xqnWI/1LTFGI3essF/9Osbt55L6pkhj1Ny2cB+Xu0+M2y/cJ9U2a4SsYoYOWdvUF1UB8uzmTqEtwwQha8MiZA2OkDWweQxZlYs3N082Uz8VU4ymi+zMIJaQDllCQWxnUUbF4xwX+oSsOUTImpRUmOcW63391nuc2H6p8XLfq487zqTH0afp5+7T/DwEQlYxw4as5QeblHqyVV0U2rIQsvIRsgZHyBrYnIasZtmgerBNaJsRXUAeUd+T2lrTF3KpkGWWrnWPwd9OyJoNQlav5zRkucV5WIy7r8O2GKlf7rZQ3aePtF8o7Oe+jv0cyn2vPjnvl/teqbFy3mdWekNWs0TMkIry8DtQQZ99a+qw3vaeWrrp9Lty2xnDMKHI6SO9nw4HTp+ba+oFt93RF7L8c/tK7Tsm98vTF7L2qLfd727941fqF2/29Yn1NbNYyWU0fddJt9fXxr9/3lJAfe+cMazprtOUdDF4R+3afk4tVcHnoLX3/BGn3xG1+67dpvs3/bpF5I7zD532yrVz8TZPfQzuWP7xzGfBOonRtfSvR3D+7X0x/dt+zvU0UtcpbPP59zh97xaZDpj1uSQ/u+Za1cE/eV/C+2H3adr1ezltnjDkescjtM+KXja4WT2O/e/OqQ/V6uqqWr1xWm4fU84yvrwglhZ/n0Qx7C1RNP3qMOB/n8g/Lr9N7mPY9237RIpofQxOP+c4w+WNHmnWT1/Hqm3Swr+9D6awbt7LC0j2eP2iOxWkBghZ7X0Mrnkw3mi2NHF+teY6NtxrHd6vgH9dws+A3551f+2xdENOcF1z7p0Vvm86QJnx0n361e8T2ya1uZrjjLXFtveNW0L4Hu7r2M+hpq3+b45w/4bbFu7jcveRhH1S++SMV1IiZDWhyA0p1bYrTrFui3C3MG+CUluIO4V6u80GAK9Yz5hZMWO7faRjHImHLLufG/TscU4eIBIh680fq4tVWLr4x5fbbS/98Vc6QL39+6afDVjO/qaPEMZ6io6s69SGMKdf3z2Y+hoV4BR6bbFot42KR7ewHBWd4eyIKTDdotQW+WHx2DeTZdvdENAUvtF9FoZzLdvrYre518m5L+11CK/bGNepbyYr+94toFHwCT670vl652zvSxs2bR83fNr7FAZWsz3+DwPmPrntzefCPaZZ6flHpZIhSyzIQ1MW2FY8ZCWKfO/4nIK4Haf/2ORZMuE9dREcBC1bQIf9OtdL2ldix5v4Wjb7O+9lzs9577kNWfVxO+9jt7nv6wbk9viDa9s53/ZzEd7jvmM25+212+vbuRbJ+xt5H72Pc0ztvQvPzb1Xwli9v6PmPOLteerjGGd7rnH2r/tOShqvFra5r2M/h1Jt48h5v5z3CvtI+zTbcsYrKRqyuoV6l54J6swkBQFGLMzN7Ek3nMlhyejuoyUK/+iY7SyOv12fjzDDlicesg7cqbY/+LF6ydse9LdBbBS6Itsq+nsK0aWCmddJDFTm3nX2bcxRyPKL8rC4FEJAxRSKtiiMBSep2OwJWXIgCI9pUcnXsnOdxPtiivymoB/nOsl9rXHu3QLqBqpK55yFAFVxr5v3eY/0abcnr51/H1s9vxflDLdkcDRzILdrusiLFZj5JgpZXgGZWcwGpJAln7cZf3QcQhEekyzCC5LeJyzCxaK8/xrLbY2+wNJDCFQ1/Zlw7kM3QFW884kcq3jO6WOWPhe18Ji0nvvbPW7hvTuBSugX+SzHf3dq7u/I5GZVqJcq8icdJ9zPfR37OTTpe4dy3q/vvcbZr2+sWYiGLDlAueIFuQ43zb6ZIctfdiiEOz2OFPp6jkMIU2Z7816B5DmnxEKW2e7OYjX0TFUbvmIzWW+qA/Z1I/l9rNzrFJm1SgbNuQlZ3WLQLxwzAo4eR/pXeFNQeoVjspg079UpQCu6yI0FhYURuZbhNekNOONdp2TIGufeLSD53MOgEwk+Dj2O9DsgXb/U/dP3WmqL39OyhgpZOcV1pOicwEQhyyueI0Wz7tNXAPuFqz6WalxRM75YuEcQstIi1zK8N7Hg04rea3N8/jmkjzn6eZSCTu/9Da6hdJyRMdzfL3P+1WtJ9HfQvHfW5zShfo9xXucqtd8sxon9HKrbxhUbx/05xt3HNWnbkOYoZDXMuE3oafcrHrJSs2aTmDZk2f3roNWSvrfVM5M1Vciy135RQ1ZbUBKyykmFLOc+pIp0jZCVKxWyRue28ULWxE9SzSUVkx1lCrhaPGQlimGvMI306ymAoyGrLzhGgoGotwgvRHqf8DjF457jkOXch8UNWUJYyvycusfRe/6i8iErVrBPUshPWvyH+9WvJW4fSdineR3bLpHaUv1jYvuMO1bdP5e0/yz1LBdMB5GSywW7woI/cxmcI3oOfd89mkgsZGUuF9R/1Lg7ayVKficr8zqJ16DnvsxtyAqLvUgwcMWCkzR+MmTFiuKMY1gIkfMIC/VUkW6Nc52SIWuce7eAxHPvBJ3+kPX8LBfMeNBPAfHQ45AKzgml3i9WXLqFa6xo7itMpfa8YjYnfFgZRXgR0vsscMgKPxP99yVyrOL46WPO+8xZOfe3DYD1+wp9xTHMMbbnM9HnqGzIShXmkxTtkxb64X6lxgm354ybcyzjjpPz8zgm3a+0xIMvTMHth6gq+LgPvtCFul+Um2DjFO8Th6xuHx3qvGBgg1hkxi0eFO1+mbNZR6+uqeV7latnxHYjHrJMgJIefOHMVOk+8sxVV/pvZGVdJyFkmf0S1yQZss6oy/U1qlw+LrUXIhSDumj0ismcgGP7ePuZYrK7X2y7pY/JL0JNgTvbgn/Pu/fM5/LWZbVHaC9DuJa2uPaK7pyAM8Z1Sl+/ce5dScN8xrshSDq3SPBx2fvk7WfvQScYSffUYX7H3Pth70EsCJeU+3TBlUvqdak9R1sQCm2toACcUjrUmULRa+8UnELRbIvr1DHKxbR9v57ZLLNvUMBWx9UpaDOOQ9PnlLoOPaQivBMwwiBizzV6fGF/STqw9OocY3Nt/XPpD1n2cyR9LoR7afpGxrPH1P3MCYEl6/7a46jHlD5Xwr3rHl8zRvoa+Mz96xzzGOpjdv9b0iRjSscz7jjSGGFb7LVrmr4ut61vzNQ4MZPsMwuJkFVrwkgjnPmo2MJ71Cco0jNDlinwfVIIM8HJ6Rcubescz4g/XnhuRjdAHFZnb8VDlglL9dK+UBCY7EMsRu3dWSs94+X1MaSlhvp7WYk/0jnRdYqE1VYqZL1xWX00QAHaFImeTqGXE7IMUzyORIvWpmBtBTMEfe0z0Ib/IUKWd25TzCKNcZ367k32vStloM94eF7yuWWELM0GtFbiHoW/W8HvlQm+TvtMA20j4/tYBy6plTpkrX6iLhwQ2jPoYrYnYJjCMijop5AOWbVRGDC6722KUl9fcRkv3MP3qwnn2wSjRuwcwn7RQjsxRh+hUJcCjH8sdX9TvLshQbqWxuhaNSGza8zPRRNoPN17khOyap3jil5PJ/hY/uel/zPXGuP+ip/JcP/YGMIx1+Kf8+lCVj12+DqHu0/KOH1rYf/m9bjj1KR9YuPkbK9/zuHu7+7r/je2LWwLt00qHGtWekIWhhJ7yEVnxquVns2aCR2yhKA9pNxiHoXkB1aUoUPWEDNEC0B//zTxj0mNkzemCVmmKEv/q7wtwvuC2Bj6Q9ZsZAVKzJYUBJ9HOkhFQqJuGzOcZpkuZM3aOAV+rK8bFmKk/UJ9/cJ2qf+4Y8S2NfrGWzSErDlhZrFis1uR72rpZTSzC1ovXhGWE/bNds0aIWtghKyhEbIs+79vvd/FamayJv07WalCsFW+cBsmZFXH7QWqvECJGdsIIavvHDdoyMLGQsiaG9LTBSudB2YEdCHS/y+9k7Hfy8tdTijpLA+T/E29Jm736SVqCxiyOsusJCv31Y+k7Z6885aWm3Us/03e7tKF/iKGrHCJnOzV2/J2T855F/6ML2LIKvuZq8c0ywTTAeu0+kAvE1xVKxcOCe3zLVyeNrOiMFiWRcCaA89xyHKXLibPr3DIGuz3CRgDIQsAAAAACiJkAQAAAEBBhCwAAAAAKIiQBQAAAAAFEbIAAAAAoCBCFgAAAAAURMgCAAAAgIIIWQAAAABQECELAAAAAAoiZAEAAABAQYQsAAAAACiIkAUAAAAABRGyAAAAAKAgQhYAAAAAFETIAgAAAICCCFkAAAAAUBAhCwAAAAAKImQBAAAAQDG71P8DqmshHPDMoQgAAAAASUVORK5CYII=;" parent="1" vertex="1">
                    <mxGeometry x="-490" y="150" width="857" height="152" as="geometry"/>
                </mxCell>
                <mxCell id="4" value="&lt;span style=&quot;background-color: rgb(255, 0, 0);&quot;&gt;&lt;font color=&quot;#ffff00&quot;&gt;我们发现它打印的是[Object: null prototype]{}&lt;/font&gt;&lt;/span&gt;&lt;br&gt;1、这个事实上就是我们最顶层原型&lt;br&gt;2、从Object直接创建出来的对象的原型就是&lt;span style=&quot;background-color: initial;&quot;&gt;[Object: null prototype]{}&lt;br&gt;3、查找属性会从一层层的往上找，找不到则返回undefined&lt;br&gt;&lt;/span&gt;" style="text;strokeColor=none;align=left;fillColor=none;html=1;verticalAlign=middle;whiteSpace=wrap;rounded=0;" parent="1" vertex="1">
                    <mxGeometry x="-490" y="320" width="490" height="70" as="geometry"/>
                </mxCell>
                <mxCell id="5" value="&lt;span style=&quot;background-color: rgb(255, 0, 0);&quot;&gt;&lt;font color=&quot;#ffff00&quot;&gt;[Object: null prototype]{}的特殊性&lt;/font&gt;&lt;/span&gt;&lt;br&gt;1、该对象不再继续有原型属性，也就是最顶层原型。&lt;br&gt;2、该对象有很多默认的属性和方法。（toString类）&lt;span style=&quot;background-color: initial;&quot;&gt;&lt;br&gt;&lt;br&gt;&lt;/span&gt;" style="text;strokeColor=none;align=left;fillColor=none;html=1;verticalAlign=middle;whiteSpace=wrap;rounded=0;" parent="1" vertex="1">
                    <mxGeometry x="-490" y="400" width="490" height="70" as="geometry"/>
                </mxCell>
                <mxCell id="7" value="function Person() {}" style="rounded=0;whiteSpace=wrap;html=1;fillColor=#ffcc99;strokeColor=#36393d;fontColor=#000000;" parent="1" vertex="1">
                    <mxGeometry x="-340" y="640" width="340" height="60" as="geometry"/>
                </mxCell>
                <mxCell id="27" style="edgeStyle=none;html=1;entryX=0;entryY=0.5;entryDx=0;entryDy=0;fontColor=#000000;labelBackgroundColor=#FF0000;strokeColor=#FF0000;" parent="1" source="8" target="20" edge="1">
                    <mxGeometry relative="1" as="geometry"/>
                </mxCell>
                <mxCell id="8" value="prototype" style="rounded=0;whiteSpace=wrap;html=1;fillColor=#ffcc99;strokeColor=#36393d;fontColor=#000000;" parent="1" vertex="1">
                    <mxGeometry x="-340" y="700" width="180" height="50" as="geometry"/>
                </mxCell>
                <mxCell id="10" value="p1对象" style="rounded=0;whiteSpace=wrap;html=1;fillColor=#ffcc99;strokeColor=#36393d;fontColor=#000000;" parent="1" vertex="1">
                    <mxGeometry x="-340" y="810" width="340" height="60" as="geometry"/>
                </mxCell>
                <mxCell id="11" value="__proto__" style="rounded=0;whiteSpace=wrap;html=1;fillColor=#ffcc99;strokeColor=#36393d;fontColor=#000000;" parent="1" vertex="1">
                    <mxGeometry x="-340" y="870" width="160" height="50" as="geometry"/>
                </mxCell>
                <mxCell id="12" value="" style="rounded=0;whiteSpace=wrap;html=1;fillColor=#ffcc99;strokeColor=#36393d;fontColor=#000000;" parent="1" vertex="1">
                    <mxGeometry x="-180" y="870" width="180" height="50" as="geometry"/>
                </mxCell>
                <mxCell id="13" value="name" style="rounded=0;whiteSpace=wrap;html=1;fillColor=#ffcc99;strokeColor=#36393d;fontColor=#000000;" parent="1" vertex="1">
                    <mxGeometry x="-340" y="920" width="160" height="50" as="geometry"/>
                </mxCell>
                <mxCell id="14" value="&quot;why&quot;" style="rounded=0;whiteSpace=wrap;html=1;fillColor=#ffcc99;strokeColor=#36393d;fontColor=#000000;" parent="1" vertex="1">
                    <mxGeometry x="-180" y="920" width="180" height="50" as="geometry"/>
                </mxCell>
                <mxCell id="15" value="age" style="rounded=0;whiteSpace=wrap;html=1;fillColor=#ffcc99;strokeColor=#36393d;fontColor=#000000;" parent="1" vertex="1">
                    <mxGeometry x="-340" y="970" width="160" height="50" as="geometry"/>
                </mxCell>
                <mxCell id="16" value="18" style="rounded=0;whiteSpace=wrap;html=1;fillColor=#ffcc99;strokeColor=#36393d;fontColor=#000000;" parent="1" vertex="1">
                    <mxGeometry x="-180" y="970" width="180" height="50" as="geometry"/>
                </mxCell>
                <mxCell id="18" value="Person的原型对象" style="rounded=0;whiteSpace=wrap;html=1;fillColor=#ffcc99;strokeColor=#36393d;fontColor=#000000;" parent="1" vertex="1">
                    <mxGeometry x="190" y="640" width="340" height="60" as="geometry"/>
                </mxCell>
                <mxCell id="20" value="__proto__" style="rounded=0;whiteSpace=wrap;html=1;fillColor=#ffcc99;strokeColor=#36393d;fontColor=#000000;" parent="1" vertex="1">
                    <mxGeometry x="190" y="700" width="180" height="50" as="geometry"/>
                </mxCell>
                <mxCell id="47" style="edgeStyle=none;html=1;entryX=0;entryY=0.5;entryDx=0;entryDy=0;labelBackgroundColor=#FF0000;strokeColor=#FF0000;fontColor=#FF0000;" parent="1" source="21" target="36" edge="1">
                    <mxGeometry relative="1" as="geometry"/>
                </mxCell>
                <mxCell id="21" value="" style="rounded=0;whiteSpace=wrap;html=1;fillColor=#ffcc99;strokeColor=#36393d;fontColor=#000000;" parent="1" vertex="1">
                    <mxGeometry x="370" y="700" width="160" height="50" as="geometry"/>
                </mxCell>
                <mxCell id="22" value="" style="rounded=0;whiteSpace=wrap;html=1;fillColor=#ffcc99;strokeColor=#36393d;fontColor=#000000;" parent="1" vertex="1">
                    <mxGeometry x="370" y="750" width="160" height="50" as="geometry"/>
                </mxCell>
                <mxCell id="23" value="constructor" style="rounded=0;whiteSpace=wrap;html=1;fillColor=#ffcc99;strokeColor=#36393d;fontColor=#000000;" parent="1" vertex="1">
                    <mxGeometry x="190" y="750" width="180" height="50" as="geometry"/>
                </mxCell>
                <mxCell id="24" value="running" style="rounded=0;whiteSpace=wrap;html=1;fillColor=#ffcc99;strokeColor=#36393d;fontColor=#000000;" parent="1" vertex="1">
                    <mxGeometry x="190" y="800" width="180" height="50" as="geometry"/>
                </mxCell>
                <mxCell id="26" value="Function" style="rounded=0;whiteSpace=wrap;html=1;fillColor=#ffcc99;strokeColor=#36393d;fontColor=#000000;" parent="1" vertex="1">
                    <mxGeometry x="370" y="800" width="160" height="50" as="geometry"/>
                </mxCell>
                <mxCell id="28" value="" style="curved=1;endArrow=classic;html=1;labelBackgroundColor=#FF0000;strokeColor=#FF0000;fontColor=#000000;entryX=0;entryY=0.75;entryDx=0;entryDy=0;" parent="1" target="20" edge="1">
                    <mxGeometry width="50" height="50" relative="1" as="geometry">
                        <mxPoint x="-180" y="900" as="sourcePoint"/>
                        <mxPoint x="-130" y="850" as="targetPoint"/>
                        <Array as="points">
                            <mxPoint x="-130" y="900"/>
                            <mxPoint x="-100" y="780"/>
                        </Array>
                    </mxGeometry>
                </mxCell>
                <mxCell id="34" value="" style="endArrow=classic;startArrow=classic;html=1;labelBackgroundColor=#FF0000;strokeColor=#FF0000;fontColor=#000000;entryX=0;entryY=0.5;entryDx=0;entryDy=0;" parent="1" target="23" edge="1">
                    <mxGeometry width="50" height="50" relative="1" as="geometry">
                        <mxPoint y="670" as="sourcePoint"/>
                        <mxPoint x="50" y="620" as="targetPoint"/>
                    </mxGeometry>
                </mxCell>
                <mxCell id="35" value="[Object: null prototype] {}&lt;font style=&quot;background-color: rgb(255, 255, 0);&quot; color=&quot;#ff0000&quot;&gt;(new Object)最顶层原型对象&lt;/font&gt;" style="rounded=0;whiteSpace=wrap;html=1;fillColor=#ffcc99;strokeColor=#36393d;fontColor=#000000;" parent="1" vertex="1">
                    <mxGeometry x="680" y="640" width="340" height="60" as="geometry"/>
                </mxCell>
                <mxCell id="36" value="constructor" style="rounded=0;whiteSpace=wrap;html=1;fillColor=#ffcc99;strokeColor=#36393d;fontColor=#000000;" parent="1" vertex="1">
                    <mxGeometry x="680" y="700" width="180" height="50" as="geometry"/>
                </mxCell>
                <mxCell id="37" value="" style="shape=image;verticalLabelPosition=bottom;labelBackgroundColor=default;verticalAlign=top;aspect=fixed;imageAspect=0;image=data:image/png,iVBORw0KGgoAAAANSUhEUgAAAYwAAAE2CAYAAAByaKVZAAAAAXNSR0IArs4c6QAAAARnQU1BAACxjwv8YQUAAAAJcEhZcwAADsMAAA7DAcdvqGQAAC/+SURBVHhe7Z3dzxzFnaj5F7hbiTsuVr5AIZFQwobIILw5Wcw3PtgGHbIEB7wYG3uV9frkOA4fYjHG4HMCZg8Qe23FayzWMkm8CENercgSbVBIpAiJDVrEaiNFuc5hr/auTndVdXd9/Kq7eqZnpmfe5+KRPVXV1R/vzO/pX9VM12UbrrpGAQAAdIEwAAAgC4QBAABZIAwAAMgCYQAAQBaTCWPPObX1rfcaXn9FfU5qNyqeVJv08b6jrrtTqodZcf7SZUpd2iDWwTCU1/izM1eLdZOi/24fl1yhzgv1sP7oL4w7X1G3FIF30x6hbhFkH8+IhPH4DvXyz74d8Kh6eIfQdsk5cuZyAs482HWl+qwI7kNJg78bSPQWxueeemdcGcXYBJaDFoYviI0vParFcfBxp92yc/SKIuhcrt7fJdTB8Ax2va9W738wfMYCy09vYVzz8siGoFZEGBuuul49fKnINM5tdsqWmQ3q0wHveCEPPYz0wZXqiFCXD8IAmWGFoec2giGfMKDr12Wbh9R1r5dDRJaXn2y2qQnavHVOXWPrdKZTl4c07ZqhKKnOJdxXKCFTf8tTDwX7TvXXgiiMa9SWc4UwLt2tNoZlztBVmIHozERvs1kddNodeen6uJ1TLw6BhUNlwbGY+h1qS8e+NPput2VIY/tW9eGrW9XfXPUVdfq5h4r/W77zp1Hbv/mOUx+2K/t57hb1Td1fWVf2+afqx7bdj7e7fTXlhq+r0ze69QNTH5NLeXxOmxtvUT+P2sTHFV6Dnz/yFa++xg5NfXpUqMsGYYBMnjDCSe6AOrBmC0PaLgzQNtB7cirKQrH0yDBMoJcCvN2X27c9plIQpswRSt1O2C6HrAxDyDh23K2OFAHalYYrgro87D8hKBfTj9vG7l8LwpbVQmnaxdsZuu50v/nI14tAv1X9uJBFHfx0gHWDpQ3wpRDqbU1ZtY3p5+tF0C0CcR18yz6MiPy+fYHobcMAPhAmwPuBX5c552L233VM9hq4IrXn6cuwYohgjzBAZkEZhiyHJjjb/eTcvQ8gjFS5f65WGIEcJhqiEwK4ySScMt3GCdZuO0ciYsAOxGLaxH01mIwhyhRCQUniESSWE3CqO2bvTlkHwibIhgG2adMESy8wWymYPk2gNe3c/1fYzCbsfwgi8ZXY/VWBPxH0w3PWr4Osy0gl7L9h6mEpnaUw9wQxIxWGHJxFBhCGPidpX/p8qvZDC8NkBTXB8I+bOUQ4bbtlUOIOIcXZgAn6QrnNMmqRZAuje/7CBHr/7t6/u/YziRovGPtB2NteB2T7fyuSiCAQD4UoOikzCs4/PmfzOj72cDufiYVhh7OmnwOBVQVhFCxGGFKAbsgTQX47QzXMZKiD/ODC6MowZBl4gTbINgxhVmD68bINVx62nRzAZ0UwFGYJswL3WGvCYTMxU+lGC2Oa370MMg8Cq8i4h6RyAvEAwhjDkFRETpuCfsKoCOdHhh6S6rjLFYdjpCGbIFhWmYLYJi2PxQujyhSazCAWRtXGOeeJhMEcBsyOYYWRkIM3oZ0pjHpbL0AX7aJMwGybk42kxCDuS8vPPc45C0OadBaYTBixIKI5lGr/7lBZD2G0/iZADIR+wK+kUgdevc1W9WM30JZlYkYSBG0rGl9QaXYef1edv/iuOvXEdrG+nUQW9B1z/J4w6td2Gy0Md7jJSsQTSwd8SwpmyLDCKDBBuWijKYOzCei9heGU+/259RZHTFG7qK7B31+4ryBTmrswSvwhpGgoqSBHGOFXc0uibKLA9OW0C38T0kcYdh5DGhpxh4vqckEiZhjHDaS+CLy7dCsUHWyF7MTvy5LIOjY/cVEL4/zF02qnUN+JlV21n1JU8TlXGUXTJs464r4M6axj6glvDcIAmd7CAMhmaX/pfUAdK4Vx9pjaLNbPAiOQcO6jF/zSG2YMwoCZou94l0waVYZxbLdcPzVCBuQPUU2AHYoaKsibvxvPkgIfhDFn/uzmu9Smr90m1oXc+NVbxPJlY+pv7cyLO46pU3oo6qI6dIdQPyj+kNRUsigor/GwGYHJMnhaLbggjDnz3cefUs8+93/Uf9t8h35973071D+++ZZ6/n+/WLd55NFv6bI9e/fXZQAAiwZhzJlSBCW332W+gfONbz5cl1Vt/u7UGf36fx16oi4DAFg0CGPOlBI4+vz36td3/vd71fdPnlYvHP+/ddldd/8PXfbQw4/WZQAAiwZhAABAFlnCuO6GP1NXff5asQ4AANYHCAMAALJAGAAAkAXCAACALEYqjI3qRw/sV7/ddpNQJ3DD/eq3u4v2D2xRB6V6AACYmoUJ45VtbQEeYQAAjI3VEAYAAMwchAEAAFnMWRg3qffKoaMEH9280bYzwihfH7z5kaZNKJhqKKoiKRhhv71ltF0dOmsW1WnWS0ismbD7tFMftjGPzj622z5CW/8/vWhPVV4xsyeo5qAfzlc+mM9ci/q4jh8I2gb1Be556et39pjaWV3H8jHi9YP/gutZl1uSjxzfr15dW1NrayfVXrEeAKZl3BmGF9ht0BcDfVtGMlS24gTBOkDaoO8GzDLAeQHUblcHukoU5omopRBOnb3oiKgKmHa7sO9i24VJwwne9TFYObrHtPN48LTXoE0t3PLcdJ/F+Z8tz9tcm1oueju/Ly1QURoIA2DWLNWQVHqbNikY0TTZy6QIAbwgHcAafBH4kjEZhKnz2ulgWW3ToNsHx9COI1+B926QtkkgCisI8iJ+G3OeVgS2T1PntjPXO+rXCmb2jx8HgJB1IIxr/GGtiTONfGEYCYT4wqgCobu9K4z6LlyiQ1AzI1cYtl143FUbT4xen25f5v9hHxX+MQDAPFgXwqhx5zyS+06RJwwjC/8O2AuQvYRRbTMScoRRycK7Tn6bPsKo+wWAhbO+hFGhxfGI+tEXhbokOcKQ20wiDGn8fjLstalEGTD4kJR43JMIQ76WALA4FiYMM0yUCtqzFYbZ9/3qlajOBCx5yKNHhuG8NsGx7LOnMKr91a9HQI8Mo2nTXNN+wihe28ny+nUr1aT3G+rwFqkeAKZlYcIo0QJw7nbDr9V2CcObm/BwRPTFLeqjqF6SRYENXtMIww2QmrLOm8DOFUZJJQ2f+NjmRI4wChpJVsdrzqO3MEqsNDy8612xTR2+UApjTV04vC2oA4AhWKgwAAZl30mEATBDEAasCFWGwe8wAGYFwoClZ+8JMxS1duGouk2oB4BhQBgAAJAFwgAAgCwQBgAAZIEwAAAgC4QBAABZIAwAAMgCYQAAQBYIAwAAshipMCZ5+mzRvvcjywEAIJeFCWOSx5snQRgAADNnNYQBAAAzB2EAAEAWcxbGTeo9b10Kn3A9jPK1t+ZFKBh3ydWSpGCE/U4oo3CtB2lthqhNhbeWRrjWxRCr601LsJZHQbz2RtzG4B+/XufDqU+t4XHb4Td4JDnAkjDuDMML7Dboi4G+LSMZMFvZfTpY/c0GT0cERhZu8IzbpBcKWqQ0SoH5q/vlnEvcRlhoSlx4yYAwAJaHpRqSSm/TJgUjmiZ7GZZwxb14Bb64TAfZKDPxV6XLoy1j67tmuUAY6KXAH5Z5qws26GvgSRMAlo11IIxgKdepMo1wGMkSykC4K3dFEA7XeCwyqErLoRY0gkhlGI0gzOu4D00kSQBYJtaFMGrcOY/kvlNUsvDvnqOMQgq6gQSkLGTh2OP2Mpwoo5CE6Q+jhQIBgNVhfQmjQouj75CNMO9Q4Af/vGGl4YLqcENS4jFlDjd56DaLnIsBgFmxMGGYYaJUUJutMMy+71evRHV2yMUNkjX27trJFuqhpUAY3cNKdj9jyjLCQG9l4V2LLBnImViKatJ77cR+sR4AxsPChFGiBeDcFYdfq+0Shjc34eGI6Itb1EdRvSSLAilIJuo1hRj0nbkb+MM2NWEAbeTUsNg7c39upTwWc4zutfDbNPhZlTR0lbim+04aYaydVHvDOgAYFQsVxuohD1vVcujMPMZNaijNlE8qu23q8AWEAbAMIIwhsdlFJIxU+ZJhsotYGKnyLGyGwe8wAMYPwhga+22jrOGYpUMeappoLmbLUXVBD0WtqVf3CfUAMDoQBgAAZIEwAAAgC4QBAABZZAkDAAAAYQAAQBYIAwAAskAYAACQRb4wdl2pPvv4MqUKPjtztdwGAABWlv4ZhhXHp0eFOgAAWFkmGpI6f6nINC5tEOsAAGA1QRgAAJAFwgAAgCwQBgAAZDGRMDYcvUKpjy9X7+8S6gAAYCWZTBiaDepT/TXbK9R5sR4AAFaJiYRx5MzliAIAYJ3BHAYAAGSBMAAAIAuEAQAAWSAMAADIYgJhmG9H8QBCAID1Rb4wnKfVkl0AAKw/JhqSAgCA9QfCAACALBAGAABkgTAAACALhAEAAFkgDAAAyAJhAABAFggDAACyQBgAAJAFwgAAgCwQBgAAZIEwAAAgC4QBAABZIAwAAMgCYQAAQBYIAwAAskAYAACQBcIAAIAsEAYAAGSBMAAAIAuEAQAAWSAMAADIAmEAAEAWCAMAALJAGAAAkAXCAACALBAGAABkgTAAACALhAEAAFkgDAAAyAJhAABAFggDYBIe36Fe/tm31cuX7lYbpfpR86Ta9NZ7amvNO+q6O6V2Y+Ihdd3r5ng37ZHqF8v5S5cpdWlDUH61ev+Dy9SnR92yaTF9qo8LPrhSHRHbzI5sYXz5hT+ob/ww4My76gtCWxiOa14uPiSvv6I+J9T1Ys+5JQkMS8LSCsMG3pefFOoWQe7xjFcYR85cXgTwK9R5oW7D0St0cB9KGlpMCxBFRT9heIJ4Rm06U4rjQ/Vlpx0MC8KAQbnzFXXLqN4HYxNYT7QQLlfv7xLqLK1C6cUG9emA8pmEKYRRcPu7anuRadzecrFgOhAGDMro3gfLLAwTwD87c7VQ52KHkaIhq74suzCuek3dXghj+2PPOGVV5lHxO7XpdncbU6+32fVhS7tr1Bce+51TL7fx+ygIj1HXl1mQOdaqnX/MOZg39i1PPaQ+99Q7OjU2nFPXuO30B7Isa1JoTfSBaBtHDut8ymNo+gn2U+Cm7Fo4Tp1HJSJ9zFKqb46j3l99bv7x+cdjCPc70TCCHvbZobZcdb16+NK3zRBQybnNQZtH1cM7nO123K2OFO0OPu6+Ltu09GP3ceSl69XGlx5t2uj9V20KqqEosQ8HewxeW03Q37xpE4bOPsK/VfAeyP0cWPz3gbNfu6+mzqc5hvD9nZadfzwFwWdOH0tZZt/vXf11orOLzMwhIxPpZuUyDEEgOmC7gd4VSjOcFfUfbRdjhCL17QyT1UJp2sXb5eC8ces7flvmZgDOm7H+kIUfRPvaDbTVmz0MrO0Zhg3c7gfD7j8K4m2BojqPUGp6GycQOOdWH6ctiz7gbl9iIMrACc5lINdloQyyhWH68bdzXrtSqiWwWR30XrvY9lKd3V99zAVbzpV9L0oW7Tcg9d+qhzC87aT3Yd3OFUlR9nL4Xk689yRa3sNGTO6+7DE5n51aXm2f3x70m08YItgvtTDsHbtTpgNxKBU3o3Beh+1MEG8Cffg6RspuCkKJSeKZaCgt8eYK38RRAC3xP3SyBOQPTpswjGTiOztxm5YPW4npy60Xjkc8t6CdbpM4ppyg4BIF9RITxOtg3EMYrf0kBKADvTix3SIM6Ziksk5uUu/t3q9+K/KI+tEXpW06aHsf9BFGx/s0fj+lkPsTSR176oYkaC99LlKfoW7MMFP3cFTFAMNSfTKaGdFPGPpOvSEM1lKbmhdes+2sMOrXKdwhJCEb0EFfyhICQQ0tjPCNHb5Z2z6QGtNPlAEU6Ddv8IZuE0YyCEtBu/O4gsCgzyton+jDPUbzASxeSyTOI0lOkB2jMFIZxhi+UdX2PhhQGG3vW58BhCG93zXm2KvzkY5pcmHkzl9UTCEM+02r6edApmfKOQyfnDb5wqiw7a086iA/KmE4b+LOwDxWYfj70scS9p3owz2OyT+AAssqjGooy2PBcxcVbe8DhNGDyTKM/PYCg8yDTMegwugeRirpK4yKcLsFDUmJQdR5w7V9IC3yhynvg+iSerOL22QcVyO/8lhSH8yw3Bx3HVBy9pPLkgpDT5oPkk0s+5BUTiBOfK4kUscuHndB0H5YYTCH0Upe9hDPa8RMKoxYEGYIzJWB7dvdfy9hHFDHLr6rzhcc2x3WCW9s+0b1soWcgKnb+NuZN268XapcY/fvHZPtO/rwSMcaYc+x7FOSlHBu+kPofeCqPvI+hDuPm+t9/viBuD5HGAk5eHMfixDGWDKKkNb3ZygH89p/r+YJo97WKyu2jSa9pfdQguSxS+85u3/nOIcWRq87fr4llcKde6gQgnqHMIwMfKJsosBkNU67sN8+wrjjmDrVJQz7AarouqtJUgX7mvSb1nygGvyg33yoDS37tjKpSUpBOC+nrrOP3Gt11XZ16OyUwiiIvwZrZDALYfj7cnGP0/YltPOPYQF0vT+9v3HZzvwt+wvDaev159an2rnvlfD97SAdg1Mf3hwNLgwbwLvnFgaY8NYskTBA/qCsHDpgJD5AXcEGNKmsRJePNfOAycjIHNblL71hHQgjNRZcgTAysNlFJIxUOSw7ei4jJQ37DadhgrzNVJbhWVKwusIwablJ45OyKEEYmUjfkioQ5jtgNZjf02rtMFjJmJ9WCwAA6xuEAQAAWSAMAADIAmEAAEAWWcK47oY/U1d9/lqxDgAA1gcIAwAAskAYAACQBcIAAIAsEEYPwudWSc+2Go7weUTdz1Qalj3qtQd/o3596x6hroUvblEf7d6v3rtBqBM4ePMj5umr224S62E4Tvz9QfX7nx5U73+3eP3db+r///7vbxbbjo/r1ZtvOscvtuniZvV+ec4//aY6Ubz2rofb7sZL6pMHz6mdbhloEMZEJB6tPisyH8I3JM/e85vkh+aVbUWAf2CLOijUIYzxcujFfUWA3KfefKB4/cBW9W/rThi2jze3qkPFa3M9pP7MzRLSiEEYE7Hawth566/UJ/suqWeFupIhhQHzQxLGv73YrAq4+kjCsNcjavu8envfBBn2ioMwJmKFhfGlc+rXxQfl7RuFOgvCWE78AGmGZ9azMMywXEoYBeXQ1L5fqde+JNStUxYnDLsmRXIdi4KutS70mhllmV7zomoXrH2hEdboiPZn1+lw2qRX5OsQRnhuWeuItNAhjGiNhuSiPk6bRFudXYipeNvqb/vVRzdvNO20MMrV4DaqHz0g1FvqoahEfc0N93vtSnrLSK9zclEdusNZfyOxBsfmJy429SVnj6nNVf3u00XZabVT/1vWF/+vF90q+3f7CvYV1fdkLiI2AVVLpJrj0LhB1QbdYChLzwdUgbh6XbZJ9lOg68r5hGpuweBLzO4v1YdDNScRMrkU7dDUPc8LdSXb1OELa2pt7Q11eItUv3osRhg2wHsBtyhzA7RZQMld7tUGfSf41oss1WXCintZCzbZvt020jHWtAhDWLApf/GpBC3CiNdYsE9KjRb9cbe3bSKxdH1ADDkZhhfYbdCXg50RkSiMoYKktDCWDfreQllF2akntjevKxlUYqlEoSVS1l1Up846IqoFZLbz+tLbTiGNOQrDBFozMVyW+zLoIYyyn3A7p00jk0YCrcNELRmB2V9zzEMNuaVvoEoQhsiwwhCCc0hqRbwgGEuBOF5XvCMbKEitRZ4O9Kk+jZyicn0+UuaTSUoY4kpyBUF7aUEfeZEfM27bNhxV0n9IqkUKbXVaNBOuXe1iheGvoigEdQG9hGyVZXiScWXiC0NnKW5mojFtuvaXZJ7CcIN6gQniVTDuIYzWfgokAdhAL05sJ4UhHZN8nL1hWMpj/sJIycBFiyEO4FWgrrbNE0YwtCWISvcjCazjOGJhWBkmaD3nNlLC0OXSCm7+EqWpDKNZntSSMX9RMjdhXOUPa00cLLOFEQ4jWTxhVFmCu70vjHqdcok6C+kmHLYLka/ZNOQE2TEKI51hTP6NKgvC8FgXwqjR/doA7mw3tDDaspmJmFIYpl05dOUgLuYzsgzDQe9z0kCZJYxKFuW8RNMuzjAyhRFlGFMyzwxjCYVh+i6l0TDIhL4WRvobg+uNhQ1JtQbVQYekBIJ+hh6Sah1um4SUMLKGpMwPAKNsQmS4OYyhhVHRuu8UWcKQMo7JhGEmzn3xTA3CaBGGmTSfOpsQaJ/DWH8sQBjNEJEnhCKIN6+rbyy5QdwEaTcYTyqMqI0VlBfobTYiZ0It0rPbZWUZ9WRsx2RoShhWBuKkd51B2DZiRhHT9RuMEjNUkphbmKkw7BCV9CO/tmvZJ8NwhozqoaWewqjqBs0yRiOMhBzKu/oFC2OQjMIj91tSa+rVfVL96rEQYWhsYK0R7sq1EJw2YRDOEkYlAw9JKFZINfEkdXg8DUF/4bmVSJmKDkBlUJKEYQO/RBD8zTelGqJswmYibhuDMJxl5zG6frDkDhF5w0SZwgi3b7hfvWLbiGP4qV+Et13LLGE07dz5Bm8CO1sYTX3dl0b6O4+JPGE0j9gwlIFay2AmwvD35eEep+5LaBMcQy8y5i/2njDCWDuxX6xfNRYnDJgTiQnuKBNpyMkyAEZDKiux5ZNlHpm/9N5yVF1AGD4IY4mx2UUq65DnNmwqjjRgGbDZRSSMVHkn9v2fMXdhMgx+h+GBMJYc6VtSBQfDyXIP86HhWTqwDEjfkpLnOzIoh6I6ZHHb4TfMUNTaSbVXqF9VEAYAAGSBMAAAIAuEAQAAWSAMAADIIksYAAAACAMAALJAGAAAkAXCAACALPKFsetK9dnHlylV8NmZq+U2AACwsvTPMKw4Pj0q1AEAwMoy0ZDU+UtFpnFpg1gHAACrCcIAAIAsZiSM/erVdfhgLgCAVQZhAABAFhMJY8PRK5T6+HL1vrh8KQAArCKTCUOzQX2qv2Z7hTov1gMAwCoxkTCOnLkcUQAArDNmNIcBAACrxownvdfPWrcAAKvOjISxTR2+UApjTV04vE2oBwCAZWN2Q1L7TiIMAIAVYgJhmG9HtT+AsMow+B0GAMCqkC8M52m1bdnF3hNmKGrtwlF1m1APAADLyURDUgAAsP5AGAAAkAXCAACALBAGAABkgTAAACALhAEAAFkgDAAAyAJhAABAFggDAACyQBgAAJAFwgAAgCwQBgAAZIEwAAAgC4QBAABZIAwAAMgCYQAAQBYIAwAAskAYAACQBcIAAIAsEAYAAGSBMAAAIAuEAQAAWSAMAADIAmEAAEAWCAMAALJAGAAAkEWWMK7duBkAYO7813/9P41UB/MHYQDAaEEY4wJhAMBoQRjjAmEAwGhBGOMiXxgHzqutb73XcOK5qDOAZeHiTy5T6id/4pfveUB98tOD6vdvPaCe3niXevut4v8//ZZ6e4/TJoenH5lsO4mhjmkBlNf4P1/fJNblgjDGxQQZxl+pr56fXhg3nCj6OH9KfUWomw1Pqu9dfFedv/imevI+qX6d88wu9fLPvh3wl2rfXqHtkvPC63+k1Md/rC5GdfeqX5TB+dy9+vUPzo1AGEMdUy++q07u/Xf18//57+r8HVL9ZrXr3o90fc3ei2pX2O6vP6/+8+PppIEwxsW6EMbel0tRnFVPPvMmwkihheELYvP3/1KL47FnnHbLzot/XMjij9Qv/1qoE4PzI+oHUbsOZi6MCY4pEyOCj9TJe/85KQzT5p+LjKcqs4KRpNF6vbtBGONi5YWxtZTEy082/0cYMoIwrt14l9r3TpFp/MM9Ttky8yfqP1rveP3g/PQr3xqdMCY+phzuKCRRBf3y/6IwjBz+6d7veuWxRBr08N8vP69eEOq6QBjjYgbCsPX1fMdP1Fe/XtU9p25y50ECbn/2r5x+utGZQymD/WcLEZRZRPuQ02iEcetO9dvdO9WpjdvVv+zeX/zf8K933xm1PXVfU1/yL7cGdfdt99pXPHX3o+q3D/65ekqoExGFsVnd9w+FMN75htocljlDV2EGojMTvc096jGn3XPfv8trJw2DRdlM2CY4FlO/S93Xta8SfbcrDUXloYO1nksQ6rUkbCCv/2+DveUXT1ft7VyE0NdMhdCHDmH8/MHve+VPP5jIMErs0NR/vCjUaR5Xf7e2ptbWfqAOBHUIY1wMLAwjBC/w68lyVxqGITIMM9Rkhpv2emXNa5dxCaMUwKPqza+aMh3gndfXbrxTvflgIISv/rn6V0caWhgJKbTJRCQrwxAyjr3fUM8VAdoN9NVQVkldHvYvbBdi+nGPye5fC8KW1UJp2sXbGaa50y1pC+aeTLQwSkk0WYbZ1sk6xCzEiOSTVwTZzZukMJq6ShAmu0jPd1y7cZP65S/bMjuEsSwMKoyvPPsTQQKmfZg9DCeMQA73/a06XUjke/udMst0wvCzAR830GeghRFsE8igyUKcNgWuCLwsQm9f9WlkI2UsSQRhmEzCKavv5ps2dTtHImLADgUhCsrFZAxRppDTjyijrqCVgZtF2Oyhyhr03IIdNhJlYL/t1GQZ/lBTcrtF0SYMzffV+VIaGnkoymVSWSOMcTGoMLQEgmGmmqD9YMI497dqq1duvg11+pm/cMoM48ow2oVhMo5QTJZKEo5UqvZGEkYY7vBVJ/WdukMw/ONmDhFOW9MuFotPlS0YokxDB31JKGa7WiTZwuiav8hAB30b0KsswpmMrjODLGHEGYsnnUWTkWFU8xh6OMp5LYEwVoPhhZEpgVkLY/gMY0CyhRFnGB5OVnHqvuLfW4vXWiYmG+ovjLY7/lwR5LercOdEahEMLowBMgwnqyiD/S+eLl+XAT8YSsoUhl9W9jWS7KIkKQyTWciT3h+pk19z2zZoYYS/e8kAYYyL4Yek3jqvbgjKJWYmDD0kJUth+Yakuvotj6lsU/yrRVFmFlYcfY8pQxhZbQr6CqPCn2Afekhq+jmMao7hF0+X/5rMoMwKjDgcGeQKo6DOKsptxpJdlKSE8bWL6p+kct0+JYzJZY0wxsVMJr1zRGDkEk+G9yEWhv1xnv0abcgyZRj1pHdrlmHnKgpJVPMVZl6jeN2VnYRkyUCYdBaYTBi2b2cuJJpDqdq4Q2U9hDHtbwJK9NDTW99qgnsZ6IvX9VBVVZYpDNO2kIZU1xPz/k6//3uRzDCqH/Vl/g6jJPtbUj9Sz9/v1yGMcZEtDBPgCxlEhEFf+uqsLIZwzmOir9WWHxCHaO7CToKH7TRDfLAmIUsYJZU0fNw25mu3Tl+2n9S3p5JkZg+NNHzc4JwjDNMm6Ef4vUfULmzTRxh2HmOSoZEKM+/gBnc7ee1+e6qPMGzWkvy6bh/qr5dPelNkhptKUUR4Mqikkar36c7sdqrnf1gKY0398PmdXh3CGBcTZBjjQZ7DAGhhgCxjWIb8Ku1fqCfPlcKQv1a+EHKv97d/gDCWAIQB6w59xzsSaeg5jCGyixKbYUjfEFwI2c+SqjIMfocxdhAGrEsm/dbOMFTDWEPJonqwpvztwEVRXuMuWRw4bYai1n74orpXqEcY42KphQEAqw3CGBcIAwBGC8IYFwgDAEYLwhgXCAMARgvCGBdZwgAAAEAYAACQBcIAAIAsEAYAAGSxDoTxmrr9h39Q36j5UH1ZbDcQj+/wn310brPcblYcvUKpj69Q56W6Idh1pfpslv0DwGhZVxnGFx773eyFUXO9evjSnIWhg/ll6tOjQl02B9Qx/avhi+rQHVL9Ner8pfLRGkgDYL2BMGbGvIWxQX1ayOKzM1cLdXnsPF6K4rQ69MTFVmFsuOpq9f4HhTQubRDqAGBVQRgzY77C0Hf9H1ypjgh1OWwuJXH8QPP/VmEUDJLNAMAy0VsYX37BnQ/4ndp0e9gmnDMI2tz+rtquy55Rm8447V54zenDYAK800ba364P/TZn3lVfcOsduoThn9sf1O275HZ5dAljszroznX87FH18I6uNqm2JrtIBW+dOZQy2H1aP6DOkBZCljAKuiR12+E39IPlLhzeJtYDwHLRQxhVgHcDblH2ghOgtQz+oLY/9oytb4J+HXxtG6/MBn0vQOsySUgNpm+3jXSMDWlh2O1cadnjnFwaLcLYcbc6UgT+Iy9dX5dtfOlRLYODj1ftrCyc7U0bQSx6ovty9X7iWM1Qkxlu2umVNa9dcoXRNcGOMABWi2xhxME5Rt+hR3f4QTAWA7HJSmLRtA0fxdtoWgJ9sk8tp7hcn4+Q+eSRFsaWc0X5pbvVRq88aG+l0ggkUVZw5MzlrXf6ohzuOKZOFRI5ttsps2QLg2EpgHVFtjBkGbgYMUQBvEAH6mrbTGH4Q1uCqHQ/ksA6jkMQgymv9hXQes5tpIRhyt3sokJnELVIUhnGDrXFvq7oGhrSwjh7TG32ys23oU49sd0pMyAMAJAYsTAqbIZiA3i93eDCaMtmJmFaYdjtS2nUSPMcmRlGQhjTZxjpoTAAWC16Dkm1B9Uhh6Rign4GH5JqH27rT0oYmUNS+geAcTYhkjOHEQpDD0nJUhhqDgMAVosek952iMgTQhHE3UlvO3ntBnETpJ1gPLEw4jZaUF6gt1JJZEJp6dntMrMMMydQYL+GKpMWRvVr8HjS28kgdBs5o4hp/w1GLAz747zE8ecKI/dbUmsn9ov1ALBc9BBGSRVYK4S7ciuEpk0QhDOFYWTgIwnFSMBpF05SR8fT4PcXnpshzlS2q0Nn08Iwgb8cPgoJgr+dwG7q42xCZyJeG4M0nNX26+tacA7R3IWdBA/baSSx5Mxf7DtphLF2Uu2V6gFgqegpDJgXqQnuKBOpSWcZ8hzGNOT+0nubOnwBYQCsCghjpJjsIpV1JOY29JxCLI2hhdGWzXjYDIPfYQCsBghjtEjfkiqIJssDhInoQYWhh6I6ZLHlqLqgh6LW1Kv7hHoAWEoQBgAAZIEwAAAgC4QBAABZIAwAAMgCYQAAQBYIAwAAskAYAACQBcIAAIAs1oEw7EMTa/IeMDgx9sGCNdLDB2fJKj1BdtHXsovw+JI/qtyjXnvwN+rXt+7xy790Tv163yX1rFsWYR7DwpojMAbWVYaR84j24Wh5Wu2sGGRBo0qwQz/ufRrmeC1zJZVY/VDi2Xt+oz558Jy4HK6u65KGfeQL0oBFgzBmxryF0f6I8xzME4I/VJvCR9IvnPlcy/iBj/Gqh17brse0FOy89VcdQjDZxyf3PC/UNehFslYlc4SlBWHMjPkKo2ttii70tbGPhjfXaZ0JI5UxJMrlRbAC9JDTb9TbNwp1Llntcp8QDDA7egvDX6dCCirhnEHQRq9PUZYF60+E61gUmMDltJH2ZxdtqmlZRrZLGOEaHNKqffl0BTl791ojPbI8bJNqa7KL1JCFPq/y+nrXKi2EqYSRWvjJBt540SjnvJIBuOVaSvtrC/LO/tz61OPkq32Ha5DkCENnF4mhqJC2YasaPTTVsiRutf4IC1bBjOghDGlVuqLMXXHPLlbkLkxUBf06+DoLGtVlNpB5ATpj2dQ4sEnH2JAWht3OlZa40FMfWoJcS/Bsglg8HGLaCMG4I5A0ImzOvRp+Sl+nCYWRGMaJAnIR6P0gnB7+mV4YwvZBm7QAnG3D+Y0AX1B5Q001N17qnsvouDFAGDBrsoWRE0R0EBpoTe90cK+It9G0BPpkn1pOcXl9Zx6U55EOcnJwCtpLd8mJO2c9vt0yHCXKofM6TSoM6W69JeA7ZAXtsC5HGLpNnD3o/dk+2zIGt51X1pphPK/ezhmOqmBYCpaAbGHIMnAxYkguo1ptmykMf2hLCF66HymodRyHIAZTXu0roPWc20gFOVMeDnGU6EBbB6FUhhEHvq75C/lvlxBuwbTCiAK2fh1mRvb6lOfoMgNhmOsW7KfC7q+vrDqFkTt/UYEwYAkYsTAqbIZiA3i93eDCEDKPqZhWGFJAFYajCrIyjIQwZpFhlLh35f55lVTn5suvb9DWZAsjFq1Luo0Rd/85jEkyjF+p174k1NUYYUzzTTiAaeg5JNUeVOXAZAN+zyGpmKCf1DZi/4bkOWTMl/QnHeTkYBO0TwyjiOTMYYR/l6RwhxFGc/zmvPxhtL5BeDphiG1Cwm0qEtt2C2MBcxgAM6bHpLcJ0H7gKYK4O+ltJ6/dIB4Fn4mFEbfRgdALbFYqkbQMaenZ7TKzDL3k6cWC4wfEekNXkJMmvZ3AlBPkatp/gxELw/4tE/Mz3cI4oI6V519wbLdUX2KkcPClMhCH4ouvjQ7ARfvewggDvX1d9tUEf7t9h4DNMbhtZLHVbVuFkfMbjIZBvyV14ai6TaoHmJIewiipAmuFEFSsEJo2QRDOFIaRgY8kFBPcnHZhEIyOp8HvLzw3Q5ypbFeHzqaFYQK/CVg+8l1wUx8HszqIBkgBTM9jJH7YlXUtW65TdE3vOKZOdQqjuRbS8UbnX8hAt3eCcO619NuV19HKyssWKmn4hBlFeM3FY6/adQijmpeIHgkSMtT8Rb2W+hvq8BahHmBKegoD5oUJgrFETLmUeaSzDHFICubCvH/pvfcEwoDZgTBGSjw80l6usc8cCqWBMBaJFUJCGoM+S6rKMPgdBswIhDFa5CGUzmEQHVz8O1GEsWiMNGb3tNr96lU9FLWmLhzeJtQDDAPCAACALBAGAABkgTAAACALhAEAAFkgDAAAyAJhAABAFggDAACyQBgAAJDFOhCGfdBeTd4DBifGPliwRnpg3iwRfrgH/aifTTXnv53+1Xf0iBDzo7+ux6SXzxLjsecwa9ZVhpF+Wu0saHnC6qzYdaX6bOrHX1eCHeLx5rlP220hFHDfp9lOwCKE0frMKf3o8w5p2L890oBZgjBmxryF0f6I8xzMU20/VJs6H2+ewQDCEB+0WD7lNrqmC5DzkGghtC+elPWo9K7HnwNMCcKYGfMNYl3LtHahr419jLm5TosWRp/rt8zCMCvzdT4CPfOpttO+DwDa6C0Mf20FKaiEcwZBG73uQlkWrD8hLOZjApfTRtqfXbSppuUhe13C8M9NXrUvn64gZtZsaIZbpOAatkm1bV+JTZ9XeX29a5UWwjTCSK3hoQmGk+qhnwrvWtnr1/awxWhNEZ9wASW9toU3xOVfx/B4pLUw9PmVx9nSjyZ5bMGThrNW2rNkZCLdw5LVgwpPqr1iPUCaHsKQVqUrytwV9+wiPO7iPFXQr4Ovs1BPXWYDmRegM5ZNjQObdIwNaWHY7Vxp2eOcXBotwrDBxA1IVbBqgpyVhbO9OERT0jEU0YiwOfdq+Cl9nSYTRk1HhhE/pt2erysIJyiHCx35dMnZ1uu+mn3qYxCFZI4lKQzvOAWxCX/f+HwNWSvt1eSsE9617jfCgMnJFkZOENFBKLrDD4KxGIjjFffSwb0i3kbTEuiTfWo5xeX1nXlQnkc6iMmBKmhvg44XKKWyAr24TsswhCiHzus0Q2EkzkPeJsiyRClkCiO45kbA0toiHcLo6kc6D/HcEo89T8KwFCyWbGHIMnAxYogCeIEOQNW2mcLwh7aE4KX7kYJax3EIYjDl1b4CJl5HIhXETLkUjHTgqYNRKsOIA1xXgJD/dgnhFsxcGLouHahT2YQ5/zhgZwsjWR8ypTBSGUZ03LnzFxUIAxbLiIVRYTMUG8Dr7QYXhpB5TMW0wrDblwGyRg7AWRlGQhgLyTAmFIZGbxu2GZkwKtl7SOc7WYbR1V4Lo23tb4AJ6Tkk1R5U5cBkA37PIamYoJ/UNmL/huQ5ZMyX9CcdpLKGpJJBVSBnDiP8uySFOwdh9BqSClgCYfjib2f+cxgAk5MtjCpA+4GnCOLupLedvHaDeBR8JhZG3EYHQi+wWalE0jKkpWe3y8wydh5/V52/WHD8gFhvaAlSNui5AckEHSdY5gTPmvbfYMTCsH/LxPxMtzAOqGPl+Rcc2y3VFwjDMg322kh35fX1Kl6npCoEYx3Ik4JdgDByZZ/zzaeKQb8l9YY6vEWqB0jTQxglVWCtEIKKFULTJgjCmcIwMvCRhGKCm9MuDILR8TT4/YXnZogzle3q0Nm0MEywKINXSBD8bUBt6uMAY4JgjBTI9DBE4pEgWdey5TpF1/SOY+pUlzBKrBhrgkAbnl90XtE1KujKIpy2TRaSJ4zU9Xb/NjnCkI6lIh5uM1lD17zEcPMX29ThC6z/DZPRUxgwL1J3qaZcyjzSWYY4JAUzQ5JKXS5lHvP+pfe+kwgDJgJhjJRUcEkGnRIdMGJpIIx5kho2S5Ub9FxGShpaKEM9S6rKMPgdBvQHYYyWxLBGIuDUaGn4Q1MIY95I35Iq6BgS09KIhpzMUNQQT6vde8IMRa1dOKpuE+oBukAYAACQBcIAAIAsEAYAAGSBMAAAIAuEAQAAWSAMAADIAmEAAEAWCAMAALJAGAAAkAXCAACALBAGAABkgTAAACALhAEAAFkgDAAAyAJhAABAFggDAAAyuEb9f4jWzDrPTI00AAAAAElFTkSuQmCC;" parent="1" vertex="1">
                    <mxGeometry x="-820" y="640" width="396" height="310" as="geometry"/>
                </mxCell>
                <mxCell id="38" value="" style="rounded=0;whiteSpace=wrap;html=1;fillColor=#ffcc99;strokeColor=#36393d;fontColor=#000000;" parent="1" vertex="1">
                    <mxGeometry x="860" y="700" width="160" height="50" as="geometry"/>
                </mxCell>
                <mxCell id="39" value="valueOf" style="rounded=0;whiteSpace=wrap;html=1;fillColor=#ffcc99;strokeColor=#36393d;fontColor=#000000;" parent="1" vertex="1">
                    <mxGeometry x="680" y="750" width="180" height="50" as="geometry"/>
                </mxCell>
                <mxCell id="40" value="Function" style="rounded=0;whiteSpace=wrap;html=1;fillColor=#ffcc99;strokeColor=#36393d;fontColor=#000000;" parent="1" vertex="1">
                    <mxGeometry x="860" y="750" width="160" height="50" as="geometry"/>
                </mxCell>
                <mxCell id="41" value="toString" style="rounded=0;whiteSpace=wrap;html=1;fillColor=#ffcc99;strokeColor=#36393d;fontColor=#000000;" parent="1" vertex="1">
                    <mxGeometry x="680" y="800" width="180" height="50" as="geometry"/>
                </mxCell>
                <mxCell id="42" value="Function" style="rounded=0;whiteSpace=wrap;html=1;fillColor=#ffcc99;strokeColor=#36393d;fontColor=#000000;" parent="1" vertex="1">
                    <mxGeometry x="860" y="800" width="160" height="50" as="geometry"/>
                </mxCell>
                <mxCell id="43" value="..." style="rounded=0;whiteSpace=wrap;html=1;fillColor=#ffcc99;strokeColor=#36393d;fontColor=#000000;" parent="1" vertex="1">
                    <mxGeometry x="680" y="850" width="180" height="50" as="geometry"/>
                </mxCell>
                <mxCell id="46" value="..." style="rounded=0;whiteSpace=wrap;html=1;fillColor=#ffcc99;strokeColor=#36393d;fontColor=#000000;" parent="1" vertex="1">
                    <mxGeometry x="860" y="850" width="160" height="50" as="geometry"/>
                </mxCell>
            </root>
        </mxGraphModel>
    </diagram>
</mxfile>